0
SECTION
2
HEADER
9
$INSUNITS
70
4
0
ENDSEC
0
SECTION
2
TABLES
0
TABLE
2
LTYPE
0
LTYPE
72
65
70
64
2
CONTINUOUS
3
______
73
0
40
0
0
ENDTAB
0
TABLE
2
LAYER
0
ENDTAB
0
ENDSEC
0
SECTION
2
ENTITIES
0
LINE
8
0
10
-8.9553545
20
-10.2836217
11
25.9612698
21
-13.3384305
0
LINE
8
0
10
-11.6824714
20
-7.0335705
11
-5.1414328
21
67.7308418
0
LINE
8
0
10
-4.0580824
20
68.6398808
11
32.8509311
21
65.4107605
0
LINE
8
0
10
29.211321
20
-10.6113136
11
29.3541399
21
-8.9788865
0
LINE
8
0
10
32.7602433
20
-6.2695495
11
45.8823725
21
-8.1137445
0
LINE
8
0
10
82.2106081
20
67.9545149
11
82.2106081
21
67.954515
0
LINE
8
0
10
79.8381535
20
71.4718235
11
64.0830372
21
74.5343079
0
LINE
8
0
10
60.5657287
20
72.1618534
11
60.4625074
21
71.6308257
0
LINE
8
0
10
84.5830627
20
64.4372064
11
143.9715072
21
52.8932622
0
ARC
8
0
10
26.2227369
20
-10.3498464
40
3
50
265.0000024
51
354.9999996
0
ARC
8
0
10
32.342724
20
-9.2403537
40
3
50
82.0000003
51
174.9999996
0
ARC
8
0
10
46.2998918
20
-5.1429403
40
3
50
262.0000003
51
307.9099883
0
ARC
8
0
10
85.1554897
20
67.3820879
40
3
50
168.9999999
51
258.9852071
0
ARC
8
0
10
79.2657265
20
68.526942
40
3
50
348.9999999
51
78.9999999
0
ARC
8
0
10
63.5106102
20
71.5894264
40
3
50
78.9999999
51
168.9999999
0
ARC
8
0
10
32.589464
20
62.4221764
40
3
50
82.6661178
51
85.0000024
0
ARC
8
0
10
-8.6938873
20
-7.2950376
40
3
50
175.0000024
51
264.9999996
0
LINE
8
0
10
96.2031183
20
-45.0220009
11
131.1638031
21
-66.0284996
0
LINE
8
0
10
134.2148036
20
-16.4715247
11
146.3510165
21
-23.7636969
0
ARC
8
0
10
144.8059022
20
-26.3351988
40
3
50
418.9790782
51
58.9999987
0
LINE
8
0
10
60.5629875
20
-37.9099528
11
76.3181039
21
-40.9724372
0
LINE
8
0
10
58.190533
20
-34.3926443
11
61.6346354
21
-16.6742735
0
ARC
8
0
10
64.5795169
20
-17.2467005
40
3
50
168.9852071
51
168.9999999
0
ARC
8
0
10
61.1354145
20
-34.9650713
40
3
50
168.9999999
51
258.9999999
0
ARC
8
0
10
76.8905309
20
-38.0275557
40
3
50
258.9999999
51
259.0147939
0
LINE
8
0
10
76.3188643
20
-40.972585
11
95.230431
21
-44.6486211
0
ARC
8
0
10
94.658004
20
-47.5935027
40
3
50
58.9999987
51
78.9999999
0
LINE
8
0
10
135.2804192
20
-65.0021121
11
144.5768564
21
-49.5302423
0
ARC
8
0
10
132.7089173
20
-63.4569978
40
3
50
238.9999987
51
328.9999987
0
ARC
8
0
10
142.0053546
20
-47.9851281
40
3
50
328.9999987
51
329.0147943
0
LINE
8
0
10
144.5772554
20
-49.5295783
11
154.8776179
21
-32.3868963
0
LINE
8
0
10
153.8512303
20
-28.2702802
11
146.3519553
21
-23.7642613
0
ARC
8
0
10
152.306116
20
-30.8417821
40
3
50
329.0000012
51
58.9999987
0
LINE
8
0
10
36.326175
20
67.955572
11
36.7507853
21
70.9768309
0
ARC
8
0
10
33.3553709
20
68.3730912
40
3
50
262.6661178
51
352.0000003
0
LINE
8
0
10
59.3417071
20
70.8313666
11
40.1391088
21
73.5301158
0
ARC
8
0
10
39.7215895
20
70.5593116
40
3
50
82.0000003
51
171.9999999
0
LINE
8
0
10
138.6066571
20
9.5709714
11
146.3439618
21
49.3759536
0
ARC
8
0
10
143.3990802
20
49.9483806
40
3
50
348.9999999
51
78.9999999
0
LINE
8
0
10
133.7482145
20
-15.4235484
11
138.6065092
21
9.5702111
0
LINE
8
0
10
138.6065092
20
9.5702111
11
138.6066571
21
9.5709714
0
LINE
8
0
10
50.5588553
20
-6.9319206
11
62.198812
21
-9.194499
0
ARC
8
0
10
49.9864283
20
-9.8768022
40
3
50
78.9999999
51
127.9099883
0
ARC
8
0
10
61.626385
20
-12.1393806
40
3
50
62.0742361
51
78.9999999
0
LINE
8
0
10
61.6347832
20
-16.6735132
11
61.6346354
21
-16.6742735
0
LINE
8
0
10
63.0313665
20
-9.4887152
11
61.6347832
21
-16.6735132
0
ARC
8
0
10
28.2151263
20
-10.5241579
40
1
50
354.9999996
51
355.0000024
0
ARC
8
0
10
30.3503346
20
-9.0660422
40
1
50
174.9999996
51
175.0000024
0
ARC
8
0
10
154.0204506
20
-31.8718582
40
1
50
328.9999987
51
329.0000012
0
ARC
8
0
10
134.7298417
20
-15.6143574
40
1
50
168.9999999
51
238.9999987
0
ARC
8
0
10
59.4808802
20
71.8216347
40
1
50
262.0000003
51
348.9999999
0
ARC
8
0
10
37.7410534
20
70.8376578
40
1
50
171.9999999
51
172.0000003
0
ARC
8
0
10
-4.1452381
20
67.6436861
40
1
50
85.0000024
51
175.0000024
0
ARC
8
0
10
-8.8681988
20
-9.287427
40
1
50
264.9999996
51
265.0000024
0
ENDSEC
0
EOF