0
SECTION
2
HEADER
9
$INSUNITS
70
4
0
ENDSEC
0
SECTION
2
TABLES
0
TABLE
2
LTYPE
0
LTYPE
72
65
70
64
2
CONTINUOUS
3
______
73
0
40
0
0
ENDTAB
0
TABLE
2
LAYER
0
ENDTAB
0
ENDSEC
0
SECTION
2
ENTITIES
0
LINE
8
0
10
63.4781942
20
-175.3696024
11
98.3948184
21
-178.4244112
0
LINE
8
0
10
60.7510773
20
-172.1195512
11
67.2921158
21
-97.3551389
0
LINE
8
0
10
68.3754662
20
-96.4460999
11
105.2844797
21
-99.6752202
0
LINE
8
0
10
101.6448696
20
-175.6972943
11
101.7876885
21
-174.0648672
0
LINE
8
0
10
105.1937919
20
-171.3555302
11
118.3159212
21
-173.1997252
0
LINE
8
0
10
154.6441567
20
-97.1314659
11
154.6441567
21
-97.1314657
0
LINE
8
0
10
152.2717021
20
-93.6141572
11
136.5165858
21
-90.5516728
0
LINE
8
0
10
132.9992773
20
-92.9241273
11
132.896056
21
-93.4551551
0
LINE
8
0
10
157.0166113
20
-100.6487744
11
216.4050559
21
-112.1927185
0
ARC
8
0
10
98.6562855
20
-175.4358271
40
3
50
265.0000024
51
354.9999996
0
ARC
8
0
10
104.7762726
20
-174.3263344
40
3
50
82.0000003
51
174.9999996
0
ARC
8
0
10
118.7334405
20
-170.228921
40
3
50
262.0000003
51
307.9099897
0
ARC
8
0
10
157.5890383
20
-97.7038929
40
3
50
168.9999999
51
258.9790778
0
ARC
8
0
10
151.6992751
20
-96.5590387
40
3
50
348.9999999
51
78.9999999
0
ARC
8
0
10
135.9441588
20
-93.4965543
40
3
50
78.9999999
51
168.9999999
0
ARC
8
0
10
105.0230126
20
-102.6638044
40
3
50
82.6661178
51
85.0000024
0
ARC
8
0
10
63.7396614
20
-172.3810183
40
3
50
175.0000024
51
264.9999996
0
LINE
8
0
10
168.6366668
20
-210.1079815
11
203.5973517
21
-231.1144803
0
LINE
8
0
10
206.6483523
20
-181.5575054
11
218.7845651
21
-188.8496776
0
ARC
8
0
10
217.2394508
20
-191.4211795
40
3
50
418.9852071
51
58.9999987
0
LINE
8
0
10
132.9965362
20
-202.9959335
11
148.7516526
21
-206.0584179
0
LINE
8
0
10
130.6240817
20
-199.478625
11
134.0681841
21
-181.7602542
0
ARC
8
0
10
137.0130656
20
-182.3326812
40
3
50
168.9852071
51
168.9999999
0
ARC
8
0
10
133.5689632
20
-200.051052
40
3
50
168.9999999
51
258.9999999
0
ARC
8
0
10
149.3240796
20
-203.1135364
40
3
50
258.9999999
51
259.0147939
0
LINE
8
0
10
148.752413
20
-206.0585657
11
167.6639796
21
-209.7346018
0
ARC
8
0
10
167.0915526
20
-212.6794834
40
3
50
58.9999987
51
78.9999999
0
LINE
8
0
10
207.7139678
20
-230.0880928
11
227.3111666
21
-197.472877
0
ARC
8
0
10
205.1424659
20
-228.5429785
40
3
50
238.9999987
51
328.9999987
0
LINE
8
0
10
226.284779
20
-193.3562609
11
218.7852289
21
-188.8500766
0
ARC
8
0
10
224.7396647
20
-195.9277628
40
3
50
329.0000012
51
58.9999987
0
LINE
8
0
10
108.7597236
20
-97.1304088
11
109.1843339
21
-94.1091499
0
ARC
8
0
10
105.7889195
20
-96.7128896
40
3
50
262.6661178
51
352.0000003
0
LINE
8
0
10
131.7752557
20
-94.2546142
11
112.5726574
21
-91.555865
0
ARC
8
0
10
112.1551381
20
-94.5266692
40
3
50
82.0000003
51
171.9999999
0
LINE
8
0
10
211.0402058
20
-155.5150093
11
218.7775105
21
-115.7100271
0
ARC
8
0
10
208.0953242
20
-154.9425823
40
3
50
348.9852071
51
348.9999999
0
LINE
8
0
10
157.0166113
20
-100.6487744
11
157.015536
21
-100.6485652
0
ARC
8
0
10
215.8326289
20
-115.1376001
40
3
50
348.9999999
51
78.9999999
0
LINE
8
0
10
206.1817632
20
-180.5095291
11
211.0400579
21
-155.5157696
0
LINE
8
0
10
122.9924041
20
-172.0179013
11
134.6323607
21
-174.2804798
0
ARC
8
0
10
122.4199771
20
-174.9627828
40
3
50
78.9999999
51
127.9099897
0
ARC
8
0
10
134.0599337
20
-177.2253613
40
3
50
62.0742361
51
78.9999999
0
LINE
8
0
10
135.4649152
20
-174.5746959
11
134.0683319
21
-181.7594939
0
ARC
8
0
10
100.6486749
20
-175.6101386
40
1
50
354.9999996
51
355.0000024
0
ARC
8
0
10
102.7838832
20
-174.1520229
40
1
50
174.9999996
51
175.0000024
0
ARC
8
0
10
226.4539993
20
-196.9578389
40
1
50
328.9999987
51
329.0000012
0
ARC
8
0
10
207.1633904
20
-180.7003381
40
1
50
168.9999999
51
238.9999987
0
ARC
8
0
10
131.9144288
20
-93.2643461
40
1
50
262.0000003
51
348.9999999
0
ARC
8
0
10
110.174602
20
-94.248323
40
1
50
171.9999999
51
172.0000003
0
ARC
8
0
10
68.2883105
20
-97.4422946
40
1
50
85.0000024
51
175.0000024
0
ARC
8
0
10
63.5653499
20
-174.3734077
40
1
50
264.9999996
51
265.0000024
0
ENDSEC
0
EOF