0
SECTION
2
HEADER
9
$INSUNITS
70
4
0
ENDSEC
0
SECTION
2
TABLES
0
TABLE
2
LTYPE
0
LTYPE
72
65
70
64
2
CONTINUOUS
3
______
73
0
40
0
0
ENDTAB
0
TABLE
2
LAYER
0
ENDTAB
0
ENDSEC
0
SECTION
2
ENTITIES
0
LINE
8
0
10
375.2861278
20
-178.4244112
11
410.202752
21
-175.3696024
0
LINE
8
0
10
406.3888304
20
-97.3551389
11
412.9298689
21
-172.1195512
0
LINE
8
0
10
368.3964665
20
-99.6752202
11
405.30548
21
-96.4460999
0
LINE
8
0
10
371.8932577
20
-174.0648672
11
372.0360766
21
-175.6972943
0
LINE
8
0
10
352.3942208
20
-173.6172445
11
368.4871543
21
-171.3555302
0
LINE
8
0
10
352.2767255
20
-172.781222
11
352.3942208
21
-173.6172445
0
LINE
8
0
10
342.0967614
20
-95.2375886
11
361.2474619
21
-92.5461331
0
LINE
8
0
10
340.9759611
20
-94.4381295
11
340.6816689
21
-92.9241273
0
LINE
8
0
10
337.1643604
20
-90.5516728
11
321.4092441
21
-93.6141572
0
LINE
8
0
10
319.0367895
20
-97.1314657
11
319.0367895
21
-97.1314659
0
LINE
8
0
10
257.2758903
20
-112.1927185
11
316.6643349
21
-100.6487744
0
ARC
8
0
10
409.9412848
20
-172.3810183
40
3
50
275.0000004
51
4.9999976
0
ARC
8
0
10
337.7367874
20
-93.4965543
40
3
50
11.0000001
51
101.0000001
0
ARC
8
0
10
321.9816711
20
-96.5590387
40
3
50
101.0000001
51
191.0000001
0
ARC
8
0
10
316.0919079
20
-97.7038929
40
3
50
281.0209222
51
11.0000001
0
ARC
8
0
10
368.9046736
20
-174.3263344
40
3
50
5.0000004
51
97.9999997
0
ARC
8
0
10
375.0246607
20
-175.4358271
40
3
50
185.0000004
51
274.9999976
0
LINE
8
0
10
270.0835945
20
-231.1144803
11
305.0442794
21
-210.1079815
0
LINE
8
0
10
254.8963811
20
-188.8496776
11
267.0325939
21
-181.5575054
0
ARC
8
0
10
256.4414954
20
-191.4211795
40
3
50
121.0000013
51
121.0147929
0
LINE
8
0
10
324.9292936
20
-206.0584179
11
340.68441
21
-202.9959335
0
LINE
8
0
10
339.6127621
20
-181.7602542
11
343.0568645
21
-199.478625
0
ARC
8
0
10
324.3568666
20
-203.1135364
40
3
50
280.9852061
51
281.0000001
0
ARC
8
0
10
340.111983
20
-200.051052
40
3
50
281.0000001
51
11.0000001
0
LINE
8
0
10
306.0169666
20
-209.7346018
11
324.9285332
21
-206.0585657
0
LINE
8
0
10
324.9285332
20
-206.0585657
11
324.9292936
21
-206.0584179
0
ARC
8
0
10
306.5893936
20
-212.6794834
40
3
50
101.0000001
51
121.0000013
0
LINE
8
0
10
246.3697796
20
-197.472877
11
265.9669784
21
-230.0880928
0
ARC
8
0
10
268.5384803
20
-228.5429785
40
3
50
211.0000013
51
301.0000013
0
LINE
8
0
10
254.8957173
20
-188.8500766
11
247.3961672
21
-193.3562609
0
ARC
8
0
10
248.9412815
20
-195.9277628
40
3
50
121.0000013
51
210.9999988
0
LINE
8
0
10
364.9212226
20
-97.1304088
11
364.6357854
21
-95.099418
0
ARC
8
0
10
367.8920267
20
-96.7128896
40
3
50
187.9999997
51
271.6991874
0
ARC
8
0
10
361.6649812
20
-95.5169373
40
3
50
8.0000001
51
97.9999997
0
LINE
8
0
10
254.9034357
20
-115.7100271
11
262.6407404
21
-155.5150093
0
ARC
8
0
10
265.585622
20
-154.9425823
40
3
50
191.0000001
51
191.0147929
0
LINE
8
0
10
316.6654102
20
-100.6485652
11
316.6643349
21
-100.6487744
0
ARC
8
0
10
257.8483173
20
-115.1376001
40
3
50
101.0000001
51
191.0000001
0
LINE
8
0
10
262.6407404
20
-155.5150093
11
262.6408883
21
-155.5157696
0
LINE
8
0
10
262.6408883
20
-155.5157696
11
267.499183
21
-180.5095291
0
LINE
8
0
10
339.0485855
20
-174.2804798
11
351.0956484
21
-171.9387679
0
ARC
8
0
10
339.6210125
20
-177.2253613
40
3
50
101.0000001
51
117.9257639
0
LINE
8
0
10
339.6126143
20
-181.7594939
11
338.216031
21
-174.5746959
0
ARC
8
0
10
410.1155963
20
-174.3734077
40
1
50
274.9999976
51
275.0000004
0
ARC
8
0
10
405.3926357
20
-97.4422946
40
1
50
4.9999976
51
94.9999976
0
ARC
8
0
10
363.6455173
20
-95.2385911
40
1
50
7.9999997
51
367.9999997
0
ARC
8
0
10
341.9575883
20
-94.2473205
40
1
50
191.0000001
51
277.9999997
0
ARC
8
0
10
266.5175558
20
-180.7003381
40
1
50
301.0000013
51
11.0000001
0
ARC
8
0
10
247.2269469
20
-196.9578389
40
1
50
210.9999988
51
211.0000013
0
ARC
8
0
10
351.2864574
20
-172.9203951
40
1
50
7.9999997
51
101.0000001
0
ARC
8
0
10
370.897063
20
-174.1520229
40
1
50
4.9999976
51
5.0000004
0
ARC
8
0
10
373.0322713
20
-175.6101386
40
1
50
184.9999976
51
185.0000004
0
LINE
8
0
10
368.3956947
20
-99.6752879
11
367.9809829
21
-99.7115704
0
ENDSEC
0
EOF