0
SECTION
2
HEADER
9
$INSUNITS
70
4
0
ENDSEC
0
SECTION
2
TABLES
0
TABLE
2
LTYPE
0
LTYPE
72
65
70
64
2
CONTINUOUS
3
______
73
0
40
0
0
ENDTAB
0
TABLE
2
LAYER
0
ENDTAB
0
ENDSEC
0
SECTION
2
ENTITIES
0
LINE
8
0
10
302.852579
20
-13.3384305
11
337.7692033
21
-10.2836217
0
LINE
8
0
10
333.9552816
20
67.7308418
11
340.4963202
21
-7.0335705
0
LINE
8
0
10
295.5474341
20
65.3744104
11
332.8719312
21
68.6398808
0
LINE
8
0
10
299.4597089
20
-8.9788865
11
299.6025278
21
-10.6113136
0
LINE
8
0
10
279.9606721
20
-8.5312638
11
296.0536055
21
-6.2695495
0
LINE
8
0
10
279.8431768
20
-7.6952412
11
279.9606721
21
-8.5312638
0
LINE
8
0
10
269.6632126
20
69.8483922
11
288.8139131
21
72.5398477
0
LINE
8
0
10
268.5424123
20
70.6478513
11
268.2481201
21
72.1618534
0
LINE
8
0
10
264.7308116
20
74.5343079
11
248.9756953
21
71.4718235
0
LINE
8
0
10
246.6032407
20
67.954515
11
246.6032407
21
67.9545149
0
LINE
8
0
10
184.8423416
20
52.8932622
11
244.2307861
21
64.4372064
0
ARC
8
0
10
337.5077361
20
-7.2950376
40
3
50
275.0000004
51
4.9999976
0
ARC
8
0
10
265.3032386
20
71.5894264
40
3
50
11.0000001
51
101.0000001
0
ARC
8
0
10
249.5481223
20
68.526942
40
3
50
101.0000001
51
191.0000001
0
ARC
8
0
10
243.6583591
20
67.3820879
40
3
50
281.0147929
51
11.0000001
0
ARC
8
0
10
296.4711248
20
-9.2403537
40
3
50
5.0000004
51
97.9999997
0
ARC
8
0
10
302.5911119
20
-10.3498464
40
3
50
185.0000004
51
274.9999976
0
LINE
8
0
10
197.6500457
20
-66.0284996
11
232.6107305
21
-45.0220009
0
LINE
8
0
10
182.4628323
20
-23.7636969
11
194.5990452
21
-16.4715247
0
ARC
8
0
10
184.0079466
20
-26.3351988
40
3
50
121.0000013
51
121.0209218
0
LINE
8
0
10
252.4957449
20
-40.9724372
11
268.2508613
21
-37.9099528
0
LINE
8
0
10
267.1792134
20
-16.6742735
11
270.6233158
21
-34.3926443
0
ARC
8
0
10
251.9233179
20
-38.0275557
40
3
50
280.9852061
51
281.0000001
0
ARC
8
0
10
267.6784343
20
-34.9650713
40
3
50
281.0000001
51
11.0000001
0
LINE
8
0
10
233.5834178
20
-44.6486211
11
252.4949845
21
-40.972585
0
LINE
8
0
10
252.4949845
20
-40.972585
11
252.4957449
21
-40.9724372
0
ARC
8
0
10
234.1558448
20
-47.5935027
40
3
50
101.0000001
51
121.0000013
0
LINE
8
0
10
184.2369924
20
-49.5302423
11
193.5334296
21
-65.0021121
0
ARC
8
0
10
186.8084942
20
-47.9851281
40
3
50
210.9852057
51
211.0000013
0
ARC
8
0
10
196.1049315
20
-63.4569978
40
3
50
211.0000013
51
301.0000013
0
LINE
8
0
10
182.4618935
20
-23.7642613
11
174.9626185
21
-28.2702802
0
LINE
8
0
10
173.9362309
20
-32.3868963
11
184.2365934
21
-49.5295783
0
LINE
8
0
10
184.2365934
20
-49.5295783
11
184.2369924
21
-49.5302423
0
ARC
8
0
10
176.5077328
20
-30.8417821
40
3
50
121.0000013
51
210.9999988
0
LINE
8
0
10
292.4876738
20
67.955572
11
292.2022366
21
69.9865628
0
ARC
8
0
10
295.4584779
20
68.3730912
40
3
50
187.9999997
51
271.6991874
0
ARC
8
0
10
289.2314324
20
69.5690435
40
3
50
8.0000001
51
97.9999997
0
LINE
8
0
10
182.469887
20
49.3759536
11
190.2071917
21
9.5709714
0
ARC
8
0
10
193.1520733
20
10.1433984
40
3
50
191.0000001
51
191.0147929
0
ARC
8
0
10
185.4147686
20
49.9483806
40
3
50
101.0000001
51
191.0000001
0
LINE
8
0
10
190.2071917
20
9.5709714
11
190.2073396
21
9.5702111
0
LINE
8
0
10
190.2073396
20
9.5702111
11
195.0656343
21
-15.4235484
0
LINE
8
0
10
266.6150368
20
-9.194499
11
278.6620997
21
-6.8527871
0
ARC
8
0
10
267.1874638
20
-12.1393805
40
3
50
101.0000001
51
117.9257639
0
LINE
8
0
10
267.1790656
20
-16.6735132
11
265.7824823
21
-9.4887151
0
ARC
8
0
10
337.6820476
20
-9.287427
40
1
50
274.9999976
51
275.0000004
0
ARC
8
0
10
332.9590869
20
67.6436861
40
1
50
4.9999976
51
94.9999976
0
ARC
8
0
10
291.2119685
20
69.8473897
40
1
50
7.9999997
51
367.9999997
0
ARC
8
0
10
269.5240395
20
70.8386603
40
1
50
191.0000001
51
277.9999997
0
ARC
8
0
10
194.0840071
20
-15.6143574
40
1
50
301.0000013
51
11.0000001
0
ARC
8
0
10
174.7933982
20
-31.8718582
40
1
50
210.9999988
51
211.0000013
0
ARC
8
0
10
278.8529087
20
-7.8344143
40
1
50
7.9999997
51
101.0000001
0
ARC
8
0
10
298.4635142
20
-9.0660422
40
1
50
4.9999976
51
5.0000004
0
ARC
8
0
10
300.5987225
20
-10.5241579
40
1
50
184.9999976
51
185.0000004
0
ENDSEC
0
EOF